<svg width="239" height="40" viewBox="0 0 239 40" fill="none" xmlns="http://www.w3.org/2000/svg">
<path d="M28.3138 5.83318C28.3138 5.61216 28.226 5.4002 28.0699 5.24392C27.9137 5.08764 27.7019 4.99984 27.481 4.99984H23.3172C21.2206 4.89533 19.1678 5.6255 17.6074 7.03081C16.047 8.43613 15.1059 10.4023 14.9897 12.4998V16.9998H10.8259C10.6051 16.9998 10.3932 17.0876 10.2371 17.2439C10.0809 17.4002 9.99316 17.6122 9.99316 17.8332V22.1665C9.99316 22.3875 10.0809 22.5995 10.2371 22.7558C10.3932 22.912 10.6051 22.9998 10.8259 22.9998H14.9897V34.1665C14.9897 34.3875 15.0774 34.5995 15.2336 34.7558C15.3898 34.9121 15.6016 34.9998 15.8224 34.9998H20.819C21.0398 34.9998 21.2517 34.9121 21.4078 34.7558C21.564 34.5995 21.6517 34.3875 21.6517 34.1665V22.9998H26.0154C26.2006 23.0025 26.3813 22.9433 26.5292 22.8316C26.677 22.7199 26.7833 22.5621 26.8315 22.3832L28.0306 18.0498C28.0638 17.9267 28.0682 17.7976 28.0437 17.6725C28.0191 17.5474 27.9662 17.4296 27.8889 17.3281C27.8117 17.2267 27.7122 17.1444 27.5982 17.0874C27.4842 17.0305 27.3586 17.0006 27.2312 16.9998H21.6517V12.4998C21.6932 12.0873 21.8868 11.705 22.1947 11.4277C22.5027 11.1503 22.9029 10.9978 23.3172 10.9998H27.481C27.7019 10.9998 27.9137 10.912 28.0699 10.7558C28.226 10.5995 28.3138 10.3875 28.3138 10.1665V5.83318Z" fill="#4D5467"/>
<path d="M92.2325 13.9998C90.956 13.9954 89.6911 14.243 88.5103 14.7283C87.3295 15.2136 86.2558 15.9271 85.3509 16.8281C84.4459 17.729 83.7274 18.7997 83.2363 19.9788C82.7453 21.1579 82.4914 22.4224 82.4893 23.6998V33.4998C82.4893 33.8976 82.6472 34.2792 82.9283 34.5605C83.2094 34.8418 83.5907 34.9998 83.9882 34.9998H87.4858C87.8833 34.9998 88.2646 34.8418 88.5457 34.5605C88.8268 34.2792 88.9847 33.8976 88.9847 33.4998V23.6998C88.9844 23.2455 89.0798 22.7962 89.2646 22.3812C89.4494 21.9662 89.7196 21.5949 90.0574 21.2914C90.3953 20.9879 90.7933 20.759 91.2254 20.6198C91.6576 20.4805 92.1142 20.434 92.5656 20.4831C93.375 20.5852 94.1189 20.9809 94.6562 21.5953C95.1934 22.2097 95.4866 23.0001 95.4802 23.8165V33.4998C95.4802 33.8976 95.6382 34.2792 95.9193 34.5605C96.2004 34.8418 96.5816 34.9998 96.9792 34.9998H100.477C100.874 34.9998 101.256 34.8418 101.537 34.5605C101.818 34.2792 101.976 33.8976 101.976 33.4998V23.6998C101.974 22.4224 101.72 21.1579 101.229 19.9788C100.738 18.7997 100.019 17.729 99.1141 16.8281C98.2091 15.9271 97.1355 15.2136 95.9547 14.7283C94.7739 14.243 93.509 13.9954 92.2325 13.9998Z" fill="#4D5467"/>
<path d="M77.9924 15.5001H73.4955C72.6677 15.5001 71.9966 16.1717 71.9966 17.0001V33.5001C71.9966 34.3285 72.6677 35.0001 73.4955 35.0001H77.9924C78.8203 35.0001 79.4914 34.3285 79.4914 33.5001V17.0001C79.4914 16.1717 78.8203 15.5001 77.9924 15.5001Z" fill="#4D5467"/>
<path d="M75.744 12.5C77.8136 12.5 79.4914 10.8211 79.4914 8.75C79.4914 6.67893 77.8136 5 75.744 5C73.6743 5 71.9966 6.67893 71.9966 8.75C71.9966 10.8211 73.6743 12.5 75.744 12.5Z" fill="#4D5467"/>
<path d="M147.457 33.3333C149.92 33.4158 152.374 33.0034 154.675 32.1205C156.976 31.2376 159.076 29.9021 160.853 28.193C162.629 26.4839 164.045 24.4358 165.017 22.1698C165.988 19.9038 166.496 17.4658 166.511 15C167.639 13.6023 168.477 11.993 168.976 10.2667C169.013 10.1303 169.01 9.98601 168.967 9.85128C168.924 9.71655 168.843 9.59708 168.734 9.50727C168.625 9.41745 168.492 9.36111 168.352 9.34504C168.212 9.32896 168.07 9.35383 167.943 9.41666C167.353 9.70108 166.688 9.79295 166.042 9.67933C165.397 9.56571 164.803 9.25233 164.345 8.78333C163.761 8.14262 163.054 7.62588 162.266 7.2637C161.478 6.90153 160.625 6.7013 159.759 6.67488C158.892 6.64846 158.029 6.79638 157.22 7.10989C156.412 7.42339 155.674 7.89609 155.052 8.49999C154.2 9.32609 153.575 10.3588 153.24 11.4978C152.904 12.6368 152.868 13.8432 153.137 15C147.557 15.3333 143.726 12.6833 140.662 9.04999C140.57 8.94566 140.449 8.87041 140.315 8.83344C140.181 8.79647 140.039 8.79937 139.907 8.84179C139.774 8.88421 139.657 8.96431 139.569 9.07232C139.482 9.18033 139.427 9.31156 139.413 9.44999C138.829 12.6907 139.25 16.0326 140.62 19.0268C141.989 22.021 144.242 24.5241 147.074 26.2C145.175 28.3797 142.508 29.7411 139.629 30C139.475 30.0256 139.333 30.0988 139.222 30.2093C139.112 30.3199 139.038 30.4623 139.013 30.6166C138.987 30.7709 139.01 30.9293 139.079 31.0698C139.148 31.2103 139.259 31.3257 139.396 31.4C141.9 32.6523 144.658 33.3136 147.457 33.3333Z" fill="#4D5467"/>
<path fill-rule="evenodd" clip-rule="evenodd" d="M219.32 30.333C224.839 30.333 229.313 25.8558 229.313 20.333C229.313 14.8102 224.839 10.333 219.32 10.333C213.801 10.333 209.327 14.8102 209.327 20.333C209.327 25.8558 213.801 30.333 219.32 30.333ZM219.32 26.9997C222.999 26.9997 225.982 24.0148 225.982 20.333C225.982 16.6511 222.999 13.6663 219.32 13.6663C215.641 13.6663 212.658 16.6511 212.658 20.333C212.658 24.0148 215.641 26.9997 219.32 26.9997Z" fill="#4D5467" stroke="#4D5467"/>
<path d="M229.314 8.66602C228.394 8.66602 227.648 9.41222 227.648 10.3327C227.648 11.2531 228.394 11.9993 229.314 11.9993C230.234 11.9993 230.979 11.2531 230.979 10.3327C230.979 9.41222 230.234 8.66602 229.314 8.66602Z" fill="#4D5467" stroke="#4D5467"/>
<path fill-rule="evenodd" clip-rule="evenodd" d="M202.089 7.4601C201 9.59922 201 12.3995 201 18V22.6667C201 28.2672 201 31.0675 202.089 33.2065C203.047 35.0882 204.576 36.618 206.456 37.5767C208.594 38.6667 211.392 38.6667 216.989 38.6667H221.652C227.249 38.6667 230.047 38.6667 232.185 37.5767C234.065 36.618 235.594 35.0882 236.552 33.2065C237.641 31.0675 237.641 28.2672 237.641 22.6667V18C237.641 12.3995 237.641 9.59922 236.552 7.4601C235.594 5.57847 234.065 4.04867 232.185 3.08993C230.047 2 227.249 2 221.652 2H216.989C211.392 2 208.594 2 206.456 3.08993C204.576 4.04867 203.047 5.57847 202.089 7.4601ZM221.652 5.33333H216.989C214.136 5.33333 212.196 5.33593 210.697 5.4585C209.236 5.5779 208.49 5.79432 207.969 6.05995C206.715 6.69912 205.696 7.71898 205.057 8.9734C204.792 9.49473 204.575 10.2421 204.456 11.7035C204.334 13.2037 204.331 15.1447 204.331 18V22.6667C204.331 25.522 204.334 27.4628 204.456 28.9632C204.575 30.4247 204.792 31.172 205.057 31.6933C205.696 32.9477 206.715 33.9675 207.969 34.6067C208.49 34.8723 209.236 35.0888 210.697 35.2082C212.196 35.3307 214.136 35.3333 216.989 35.3333H221.652C224.506 35.3333 226.445 35.3307 227.944 35.2082C229.405 35.0888 230.152 34.8723 230.673 34.6067C231.926 33.9675 232.945 32.9477 233.584 31.6933C233.85 31.172 234.066 30.4247 234.185 28.9632C234.308 27.4628 234.31 25.522 234.31 22.6667V18C234.31 15.1447 234.308 13.2037 234.185 11.7035C234.066 10.2421 233.85 9.49473 233.584 8.9734C232.945 7.71898 231.926 6.69912 230.673 6.05995C230.152 5.79432 229.405 5.5779 227.944 5.4585C226.445 5.33593 224.506 5.33333 221.652 5.33333Z" fill="#4D5467" stroke="#4D5467"/>
</svg>
